{
    "accessors" : [
        {
            "bufferView" : 0,
            "componentType" : 5123,
            "count" : 1812,
            "max" : [
                511
            ],
            "min" : [
                0
            ],
            "type" : "SCALAR"
        },
        {
            "bufferView" : 1,
            "componentType" : 5126,
            "count" : 512,
            "max" : [
                2.557816505432129,
                0.6325460076332092,
                2.637490749359131
            ],
            "min" : [
                -2.557816505432129,
                -0.6325460076332092,
                -7.557816505432129
            ],
            "type" : "VEC3"
        },
        {
            "bufferView" : 2,
            "componentType" : 5126,
            "count" : 512,
            "max" : [
                1.0,
                1.0,
                1.0
            ],
            "min" : [
                -1.0,
                -1.0,
                -1.0
            ],
            "type" : "VEC3"
        },
        {
            "bufferView" : 3,
            "componentType" : 5126,
            "count" : 512,
            "max" : [
                1.0,
                1.0,
                0.9238526225090027,
                1.0
            ],
            "min" : [
                -1.0,
                -1.0,
                -0.9244838953018188,
                -1.0
            ],
            "type" : "VEC4"
        },
        {
            "bufferView" : 4,
            "componentType" : 5126,
            "count" : 512,
            "max" : [
                0.9367250800132751,
                0.9987145662307739
            ],
            "min" : [
                0.0012854766100645065,
                0.0012854933738708496
            ],
            "type" : "VEC2"
        }
    ],
    "asset" : {
        "generator" : "Khronos Blender glTF 2.0 exporter",
        "version" : "2.0"
    },
    "bufferViews" : [
        {
            "buffer" : 0,
            "byteLength" : 3624,
            "byteOffset" : 0,
            "target" : 34963
        },
        {
            "buffer" : 0,
            "byteLength" : 6144,
            "byteOffset" : 3624,
            "target" : 34962
        },
        {
            "buffer" : 0,
            "byteLength" : 6144,
            "byteOffset" : 9768,
            "target" : 34962
        },
        {
            "buffer" : 0,
            "byteLength" : 8192,
            "byteOffset" : 15912,
            "target" : 34962
        },
        {
            "buffer" : 0,
            "byteLength" : 4096,
            "byteOffset" : 24104,
            "target" : 34962
        }
    ],
    "buffers" : [
        {
            "byteLength" : 28200,
            "uri" : "targetLowPoly.bin"
        }
    ],
    "meshes" : [
        {
            "name" : "LowPoly.003__0",
            "primitives" : [
                {
                    "attributes" : {
                        "NORMAL" : 2,
                        "POSITION" : 1,
                        "TANGENT" : 3,
                        "TEXCOORD_0" : 4
                    },
                    "indices" : 0
                }
            ]
        }
    ],
    "nodes" : [
        {
            "children" : [
                5
            ],
            "name" : "436fec75bf2c4e4e8cd1afd5c475288c.fbx",
            "rotation" : [
                0.70710688829422,
                -5.708758119005175e-11,
                6.191718145143188e-13,
                0.7071067094802856
            ],
            "scale" : [
                1.0,
                1.0000001192092896,
                1.0000001192092896
            ]
        },
        {
            "name" : "Camera",
            "rotation" : [
                0.483536034822464,
                0.33687159419059753,
                -0.20870360732078552,
                0.7804827094078064
            ],
            "translation" : [
                7.481131553649902,
                5.34366512298584,
                6.5076398849487305
            ]
        },
        {
            "name" : "Lamp",
            "rotation" : [
                0.16907575726509094,
                0.7558802962303162,
                -0.27217137813568115,
                0.570947527885437
            ],
            "scale" : [
                1.0,
                1.0,
                0.9999999403953552
            ],
            "translation" : [
                4.076245307922363,
                5.903861999511719,
                -1.0054539442062378
            ]
        },
        {
            "children" : [
                4
            ],
            "name" : "LowPoly.003",
            "rotation" : [
                -0.7071068286895752,
                5.628765140618108e-13,
                5.189779855863108e-11,
                0.7071067094802856
            ],
            "scale" : [
                100.0,
                100.0,
                99.99999237060547
            ],
            "translation" : [
                0.0,
                499.9999694824219,
                -0.0
            ]
        },
        {
            "mesh" : 0,
            "name" : "LowPoly.003__0",
            "rotation" : [
                -1.3271346688270569e-08,
                0.0,
                -0.0,
                1.0
            ],
            "scale" : [
                1.0,
                1.0,
                0.9999999403953552
            ],
            "translation" : [
                0.0,
                -2.384185791015625e-07,
                -0.0
            ]
        },
        {
            "children" : [
                3
            ],
            "name" : "RootNode",
            "rotation" : [
                4.6566128730773926e-09,
                3.669728410038431e-11,
                -3.9801877614077663e-13,
                1.0
            ],
            "scale" : [
                1.0,
                0.9999999403953552,
                1.0
            ],
            "translation" : [
                0.0,
                0.0,
                -3.0517578125e-05
            ]
        },
        {
            "children" : [
                7
            ],
            "name" : "RootNode (gltf orientation matrix)",
            "rotation" : [
                -0.7071068286895752,
                -6.191640082586769e-13,
                -5.7087570781710895e-11,
                0.7071067690849304
            ],
            "scale" : [
                1.0,
                1.0,
                1.0000001192092896
            ]
        },
        {
            "children" : [
                0
            ],
            "name" : "RootNode (model correction matrix)",
            "rotation" : [
                4.214235005406408e-08,
                -4.378151487183235e-13,
                -4.036701181653335e-11,
                1.0
            ],
            "scale" : [
                1.0,
                0.9999999403953552,
                0.9999999403953552
            ]
        },
        {
            "children" : [
                6
            ],
            "name" : "scene.gltf",
            "rotation" : [
                0.9999853372573853,
                0.0,
                -0.0,
                -0.005422760732471943
            ],
            "scale" : [
                0.007881144061684608,
                0.007881144061684608,
                0.007881144061684608
            ],
            "translation" : [
                -0.06803685426712036,
                4.94911527633667,
                2.3737051486968994
            ]
        }
    ],
    "scene" : 0,
    "scenes" : [
        {
            "name" : "Scene",
            "nodes" : [
                8,
                2,
                1
            ]
        }
    ]
}
