{
  "accessors": [
    {
      "bufferView": 2,
      "componentType": 5126,
      "count": 1822,
      "max": [
        8.2903776168823242,
        3.7206110954284668,
        0.034180939197540283
      ],
      "min": [
        -8.2903785705566406,
        -3.1762282848358154,
        -15.394798278808594
      ],
      "type": "VEC3"
    },
    {
      "bufferView": 2,
      "byteOffset": 21864,
      "componentType": 5126,
      "count": 1822,
      "max": [
        0.99945986270904541,
        1,
        1.0000001192092896
      ],
      "min": [
        -0.99945974349975586,
        -0.99997776746749878,
        -0.99999171495437622
      ],
      "type": "VEC3"
    },
    {
      "bufferView": 3,
      "componentType": 5126,
      "count": 1822,
      "max": [
        1,
        0.99991226196289062,
        0.99299764633178711,
        1
      ],
      "min": [
        -1,
        -1,
        -0.99683719873428345,
        -1
      ],
      "type": "VEC4"
    },
    {
      "bufferView": 1,
      "componentType": 5126,
      "count": 1822,
      "max": [
        0.99798601865768433,
        0.9965670108795166
      ],
      "min": [
        0.003340959083288908,
        0.0038449759595096111
      ],
      "type": "VEC2"
    },
    {
      "bufferView": 0,
      "componentType": 5125,
      "count": 8088,
      "max": [
        1821
      ],
      "min": [
        0
      ],
      "type": "SCALAR"
    },
    {
      "bufferView": 2,
      "byteOffset": 43728,
      "componentType": 5126,
      "count": 220,
      "max": [
        2.1532793045043945,
        3.8900201320648193,
        -8.7196788787841797
      ],
      "min": [
        -2.1532802581787109,
        -0.91529029607772827,
        -13.135397911071777
      ],
      "type": "VEC3"
    },
    {
      "bufferView": 2,
      "byteOffset": 46368,
      "componentType": 5126,
      "count": 220,
      "max": [
        0.99773705005645752,
        0.99942612648010254,
        0.9999995231628418
      ],
      "min": [
        -0.99773705005645752,
        -0.26768431067466736,
        -0.99333059787750244
      ],
      "type": "VEC3"
    },
    {
      "bufferView": 3,
      "byteOffset": 29152,
      "componentType": 5126,
      "count": 220,
      "max": [
        1,
        0.97742998600006104,
        0.75606483221054077,
        1
      ],
      "min": [
        -0.2210373729467392,
        -0.97742998600006104,
        -0.75606483221054077,
        1
      ],
      "type": "VEC4"
    },
    {
      "bufferView": 1,
      "byteOffset": 14576,
      "componentType": 5126,
      "count": 220,
      "max": [
        1.1020799875259399,
        0.99336200952529907
      ],
      "min": [
        -0.10208500176668167,
        -0.081036977469921112
      ],
      "type": "VEC2"
    },
    {
      "bufferView": 0,
      "byteOffset": 32352,
      "componentType": 5125,
      "count": 1230,
      "max": [
        219
      ],
      "min": [
        0
      ],
      "type": "SCALAR"
    },
    {
      "bufferView": 2,
      "byteOffset": 49008,
      "componentType": 5126,
      "count": 40,
      "max": [
        1.6968507766723633,
        -1.4086438417434692,
        13.158919334411621
      ],
      "min": [
        1.0413451718704891e-06,
        -2.2953944206237793,
        10.818729400634766
      ],
      "type": "VEC3"
    },
    {
      "bufferView": 2,
      "byteOffset": 49488,
      "componentType": 5126,
      "count": 40,
      "max": [
        0.80916690826416016,
        -0.35045084357261658,
        0.89485079050064087
      ],
      "min": [
        0.10361333936452866,
        -0.97869938611984253,
        -0.45384913682937622
      ],
      "type": "VEC3"
    },
    {
      "bufferView": 3,
      "byteOffset": 32672,
      "componentType": 5126,
      "count": 40,
      "max": [
        0.99432319402694702,
        0.87681281566619873,
        0.074732914566993713,
        1
      ],
      "min": [
        0.47994256019592285,
        0.10638576745986938,
        -0.23251914978027344,
        1
      ],
      "type": "VEC4"
    },
    {
      "bufferView": 1,
      "byteOffset": 16336,
      "componentType": 5126,
      "count": 40,
      "max": [
        1.3494000434875488,
        1.7433799505233765
      ],
      "min": [
        -0.046038981527090073,
        -0.16765089333057404
      ],
      "type": "VEC2"
    },
    {
      "bufferView": 0,
      "byteOffset": 37272,
      "componentType": 5125,
      "count": 189,
      "max": [
        39
      ],
      "min": [
        0
      ],
      "type": "SCALAR"
    },
    {
      "bufferView": 2,
      "byteOffset": 49968,
      "componentType": 5126,
      "count": 40,
      "max": [
        1.0923382660621428e-06,
        -1.4086449146270752,
        13.158919334411621
      ],
      "min": [
        -1.6968491077423096,
        -2.2953944206237793,
        10.818730354309082
      ],
      "type": "VEC3"
    },
    {
      "bufferView": 2,
      "byteOffset": 50448,
      "componentType": 5126,
      "count": 40,
      "max": [
        -0.10361333936452866,
        -0.35045129060745239,
        0.89485090970993042
      ],
      "min": [
        -0.8091665506362915,
        -0.97869950532913208,
        -0.45384907722473145
      ],
      "type": "VEC3"
    },
    {
      "bufferView": 3,
      "byteOffset": 33312,
      "componentType": 5126,
      "count": 40,
      "max": [
        0.99432337284088135,
        -0.10638410598039627,
        0.23251916468143463,
        1
      ],
      "min": [
        0.47994303703308105,
        -0.87681251764297485,
        -0.074734263122081757,
        1
      ],
      "type": "VEC4"
    },
    {
      "bufferView": 1,
      "byteOffset": 16656,
      "componentType": 5126,
      "count": 40,
      "max": [
        1.0460400581359863,
        1.7433799505233765
      ],
      "min": [
        -0.34940201044082642,
        -0.16765089333057404
      ],
      "type": "VEC2"
    },
    {
      "bufferView": 0,
      "byteOffset": 38028,
      "componentType": 5125,
      "count": 189,
      "max": [
        39
      ],
      "min": [
        0
      ],
      "type": "SCALAR"
    },
    {
      "bufferView": 4,
      "componentType": 5126,
      "count": 1,
      "max": [
        1,
        0,
        0,
        0,
        0,
        1,
        0,
        0,
        0,
        0,
        1,
        0,
        0,
        0,
        0,
        1
      ],
      "min": [
        1,
        0,
        0,
        0,
        0,
        1,
        0,
        0,
        0,
        0,
        1,
        0,
        0,
        0,
        0,
        1
      ],
      "type": "MAT4"
    }
  ],
  "asset": {
    "extras": {
      "author": "Cmanflip (https://sketchfab.com/cmanflip)",
      "license": "CC-BY-4.0 (http://creativecommons.org/licenses/by/4.0/)",
      "source": "https://sketchfab.com/models/099c5106369e4e7db70876c320e9a634",
      "title": "Rigged Mario (Free)"
    },
    "generator": "Sketchfab-3.18.6",
    "version": "2.0"
  },
  "bufferViews": [
    {
      "buffer": 0,
      "byteLength": 38784,
      "byteOffset": 0,
      "name": "floatBufferViews",
      "target": 34963
    },
    {
      "buffer": 0,
      "byteLength": 16976,
      "byteOffset": 38784,
      "byteStride": 8,
      "name": "floatBufferViews",
      "target": 34962
    },
    {
      "buffer": 0,
      "byteLength": 50928,
      "byteOffset": 55760,
      "byteStride": 12,
      "name": "floatBufferViews",
      "target": 34962
    },
    {
      "buffer": 0,
      "byteLength": 33952,
      "byteOffset": 106688,
      "byteStride": 16,
      "name": "floatBufferViews",
      "target": 34962
    },
    {
      "buffer": 0,
      "byteLength": 64,
      "byteOffset": 140640,
      "byteStride": 64,
      "name": "floatBufferViews"
    }
  ],
  "buffers": [
    {
      "byteLength": 140704,
      "uri": "scene.bin"
    }
  ],
  "extensionsUsed": [
    "KHR_materials_unlit"
  ],
  "images": [
    {
      "uri": "textures/Body__m_Body_baseColor.png"
    },
    {
      "uri": "textures/Body__m_Eye_baseColor.png"
    },
    {
      "uri": "textures/Pupil__m_PupilL_baseColor.png"
    },
    {
      "uri": "textures/Pupil__m_PupilR_baseColor.png"
    }
  ],
  "materials": [
    {
      "doubleSided": true,
      "emissiveFactor": [
        0,
        0,
        0
      ],
      "extensions": {
        "KHR_materials_unlit": {}
      },
      "name": "Body__m_Body",
      "pbrMetallicRoughness": {
        "baseColorFactor": [
          1,
          1,
          1,
          1
        ],
        "baseColorTexture": {
          "index": 0,
          "texCoord": 0
        },
        "metallicFactor": 0,
        "roughnessFactor": 1
      }
    },
    {
      "doubleSided": true,
      "emissiveFactor": [
        0,
        0,
        0
      ],
      "extensions": {
        "KHR_materials_unlit": {}
      },
      "name": "Body__m_Eye",
      "pbrMetallicRoughness": {
        "baseColorFactor": [
          1,
          1,
          1,
          1
        ],
        "baseColorTexture": {
          "index": 1,
          "texCoord": 0
        },
        "metallicFactor": 0,
        "roughnessFactor": 1
      }
    },
    {
      "doubleSided": true,
      "emissiveFactor": [
        0,
        0,
        0
      ],
      "extensions": {
        "KHR_materials_unlit": {}
      },
      "name": "Pupil__m_PupilL",
      "pbrMetallicRoughness": {
        "baseColorFactor": [
          1,
          1,
          1,
          1
        ],
        "baseColorTexture": {
          "index": 2,
          "texCoord": 0
        },
        "metallicFactor": 0,
        "roughnessFactor": 1
      }
    },
    {
      "doubleSided": true,
      "emissiveFactor": [
        0,
        0,
        0
      ],
      "extensions": {
        "KHR_materials_unlit": {}
      },
      "name": "Pupil__m_PupilR",
      "pbrMetallicRoughness": {
        "baseColorFactor": [
          1,
          1,
          1,
          1
        ],
        "baseColorTexture": {
          "index": 3,
          "texCoord": 0
        },
        "metallicFactor": 0,
        "roughnessFactor": 1
      }
    }
  ],
  "meshes": [
    {
      "primitives": [
        {
          "attributes": {
            "NORMAL": 1,
            "POSITION": 0,
            "TANGENT": 2,
            "TEXCOORD_0": 3
          },
          "indices": 4,
          "material": 0,
          "mode": 4
        }
      ]
    },
    {
      "primitives": [
        {
          "attributes": {
            "NORMAL": 6,
            "POSITION": 5,
            "TANGENT": 7,
            "TEXCOORD_0": 8
          },
          "indices": 9,
          "material": 1,
          "mode": 4
        }
      ]
    },
    {
      "primitives": [
        {
          "attributes": {
            "NORMAL": 11,
            "POSITION": 10,
            "TANGENT": 12,
            "TEXCOORD_0": 13
          },
          "indices": 14,
          "material": 2,
          "mode": 4
        }
      ]
    },
    {
      "primitives": [
        {
          "attributes": {
            "NORMAL": 16,
            "POSITION": 15,
            "TANGENT": 17,
            "TEXCOORD_0": 18
          },
          "indices": 19,
          "material": 3,
          "mode": 4
        }
      ]
    }
  ],
  "nodes": [
    {
      "children": [
        1
      ],
      "name": "RootNode (gltf orientation matrix)",
      "rotation": [
        -0.70710678118654746,
        -0,
        -0,
        0.70710678118654757
      ]
    },
    {
      "children": [
        2
      ],
      "name": "RootNode (model correction matrix)"
    },
    {
      "children": [
        3
      ],
      "name": "Collada visual scene group"
    },
    {
      "children": [
        4
      ],
      "matrix": [
        1,
        2.2204499999999999e-16,
        -2.2204499999999999e-16,
        0,
        0,
        -1,
        -3.2584099999999999e-07,
        0,
        -2.2204499999999999e-16,
        3.2584099999999999e-07,
        -1,
        0,
        0,
        0,
        0,
        1
      ],
      "name": "Armature"
    },
    {
      "children": [
        5,
        6,
        7,
        8,
        9
      ],
      "name": ""
    },
    {
      "name": "_rootJoint"
    },
    {
      "mesh": 0,
      "name": ""
    },
    {
      "mesh": 1,
      "name": ""
    },
    {
      "mesh": 2,
      "name": ""
    },
    {
      "mesh": 3,
      "name": ""
    }
  ],
  "samplers": [
    {
      "magFilter": 9729,
      "minFilter": 9987,
      "wrapS": 10497,
      "wrapT": 10497
    }
  ],
  "scene": 0,
  "scenes": [
    {
      "name": "OSG_Scene",
      "nodes": [
        0
      ]
    }
  ],
  "skins": [
    {
      "inverseBindMatrices": 20,
      "joints": [
        5
      ],
      "skeleton": 5
    }
  ],
  "textures": [
    {
      "sampler": 0,
      "source": 0
    },
    {
      "sampler": 0,
      "source": 1
    },
    {
      "sampler": 0,
      "source": 2
    },
    {
      "sampler": 0,
      "source": 3
    }
  ]
}

